<svg id="SvgjsSvg3293" width="30" height="30" xmlns="http://www.w3.org/2000/svg" version="1.1" xmlns:xlink="http://www.w3.org/1999/xlink" xmlns:svgjs="http://svgjs.com/svgjs" viewBox="0.0001220703125 0 29.99978256225586 30" fill="#ffffff" opacity="1"><defs id="SvgjsDefs3294"></defs><svg version="1.1" xmlns="http://www.w3.org/2000/svg" xmlns:xlink="http://www.w3.org/1999/xlink" width="30" height="30" viewBox="-0.000239611 -0.000621557 30 30.0002"><g><path fill="#ffffff" stroke="none" paint-order="stroke fill markers" fill-rule="evenodd" d=" M 20.89997100830078 17.801316261291504 C 24.573095321655273 12.71615982055664 23.344600677490234 5.674530029296875 18.157766342163086 2.0744075775146484 C 12.970846176147461 -1.5261554718017578 5.7886199951171875 -0.3220024108886719 2.1162681579589844 4.763814926147461 C -1.5559978485107422 9.848530769348145 -0.3284473419189453 16.88905906677246 4.859331130981445 20.489181518554688 C 8.561552047729492 23.059627532958984 13.456132888793945 23.257455825805664 17.361000061035156 20.996529579162598 C 17.361000061035156 20.996529579162598 25.845535278320312 29.264782905578613 25.845535278320312 29.264782905578613 C 26.76169204711914 30.210305213928223 28.28578758239746 30.248196601867676 29.250181198120117 29.349818229675293 C 30.214574813842773 28.45254135131836 30.253284454345703 26.95825481414795 29.337900161743164 26.01273250579834 C 29.308975219726562 25.98255157470703 29.280908584594727 25.95479393005371 29.250181198120117 25.9268159866333 C 29.250181198120117 25.9268159866333 20.89997100830078 17.801316261291504 20.89997100830078 17.801316261291504 Z M 11.501167297363281 18.572582244873047 C 7.402322769165039 18.572802543640137 4.079216003417969 15.317447662353516 4.076641082763672 11.299418449401855 C 4.07569694519043 7.280948638916016 7.396142959594727 4.022729873657227 11.495845794677734 4.021187782287598 C 15.589454650878906 4.019645690917969 18.910673141479492 7.269493103027344 18.918655395507812 11.282675743103027 C 18.925607681274414 15.302247047424316 15.606878280639648 18.565312385559082 11.506402969360352 18.572582244873047 C 11.504600524902344 18.572582244873047 11.503742218017578 18.572582244873047 11.501167297363281 18.572582244873047 Z"></path></g></svg></svg>