<svg xmlns="http://www.w3.org/2000/svg" viewBox="0 0 1812 1351" width="1812" height="1351">
	<style>
		tspan { white-space:pre }
		.shp0 { fill: #ffffff } 
	</style>
	<g id="Group 1">
		<g id="Image">
			<path id="Shape" class="shp0" d="M199.27 1342.39C17.16 1296.06 7.93 1071.51 61.07 913.7C99.52 799.5 55.34 783.61 50 627C40.57 350.3 -61.05 230.02 56 127C142.74 50.66 613.06 271.1 623 156C626.74 112.73 1003.63 252.82 990.55 211.74C982.22 185.57 969.6 161.15 951.59 140.13C909.16 90.61 842.64 66.52 800.77 16.52C813.35 -1.58 837.35 -1.68 860.06 4.09C867.69 6.04 875.18 8.64 882.03 11.45C1028.72 71.49 1401.33 70.23 1531 161C1647.07 242.25 1587.14 382.75 1683 489C1764.36 579.17 1770.26 702.03 1798.46 820.15C1811.07 872.97 1817.7 928.53 1805.47 981.43C1777.63 1101.87 1651.11 1250.47 1535.66 1294.28C1468.33 1319.83 1395.27 1316.3 1324.6 1298.33C1287.28 1288.84 1250.61 1275.31 1215.83 1259.92C1114.59 1215.12 1000.22 1136.29 883.07 1106.5C833.1 1093.79 782.62 1090.01 732.45 1101.6C653.4 1119.86 591.55 1179.17 530.9 1233.06C442.68 1311.45 331.39 1370.21 209.6 1344.78C206.1 1344.05 202.67 1343.25 199.27 1342.39" />
		</g>
	</g>
</svg>